<?xml version="1.0" encoding="UTF-8"?>
<svg width="1073px" height="617px" viewBox="0 0 1073 617" version="1.1" xmlns="http://www.w3.org/2000/svg" xmlns:xlink="http://www.w3.org/1999/xlink">
    <title>logo_GN</title>
    <defs>
        <linearGradient x1="97.1020761%" y1="50%" x2="2.89792388%" y2="0%" id="linearGradient-1">
            <stop stop-color="#8E00FF" offset="0%"></stop>
            <stop stop-color="#0047FF" offset="100%"></stop>
        </linearGradient>
    </defs>
    <g id="Page-1" stroke="none" stroke-width="1" fill="none" fill-rule="evenodd">
        <g id="Artboard-Copy-25" transform="translate(-16152.000000, -9722.000000)">
            <g id="logo_GN" transform="translate(16152.000000, 9722.000000)">
                <path d="M528.285714,366.683544 C539.647001,366.683544 548.857143,375.932548 548.857143,387.341772 C548.857143,398.750996 539.647001,408 528.285714,408 C516.924428,408 507.714286,398.750996 507.714286,387.341772 C507.714286,375.932548 516.924428,366.683544 528.285714,366.683544 Z M651.714286,309.873418 C665.915894,309.873418 677.428571,321.434672 677.428571,335.696203 C677.428571,349.957733 665.915894,361.518987 651.714286,361.518987 C637.512678,361.518987 626,349.957733 626,335.696203 C626,321.434672 637.512678,309.873418 651.714286,309.873418 Z M407.428571,320.202532 C414.529375,320.202532 420.285714,325.983159 420.285714,333.113924 C420.285714,340.244689 414.529375,346.025316 407.428571,346.025316 C400.327768,346.025316 394.571429,340.244689 394.571429,333.113924 C394.571429,325.983159 400.327768,320.202532 407.428571,320.202532 Z M528.285714,113.620253 C582.251824,113.620253 626,157.553021 626,211.746835 C626,265.94065 582.251824,309.873418 528.285714,309.873418 C474.319604,309.873418 430.571429,265.94065 430.571429,211.746835 C430.571429,157.553021 474.319604,113.620253 528.285714,113.620253 Z M698,170.43038 C717.882251,170.43038 734,186.616136 734,206.582278 C734,226.548421 717.882251,242.734177 698,242.734177 C678.117749,242.734177 662,226.548421 662,206.582278 C662,186.616136 678.117749,170.43038 698,170.43038 Z M358.571429,191.088608 C369.932715,191.088608 379.142857,200.337611 379.142857,211.746835 C379.142857,223.15606 369.932715,232.405063 358.571429,232.405063 C347.210142,232.405063 338,223.15606 338,211.746835 C338,200.337611 347.210142,191.088608 358.571429,191.088608 Z M659.428571,36.1518987 C683.571305,36.1518987 703.142857,55.8060315 703.142857,80.0506329 C703.142857,104.295234 683.571305,123.949367 659.428571,123.949367 C635.285838,123.949367 615.714286,104.295234 615.714286,80.0506329 C615.714286,55.8060315 635.285838,36.1518987 659.428571,36.1518987 Z M410,67.1392405 C424.201608,67.1392405 435.714286,78.7004951 435.714286,92.9620253 C435.714286,107.223556 424.201608,118.78481 410,118.78481 C395.798392,118.78481 384.285714,107.223556 384.285714,92.9620253 C384.285714,78.7004951 395.798392,67.1392405 410,67.1392405 Z M523.142857,-2.7000624e-13 C543.025108,-2.7000624e-13 559.142857,16.1857564 559.142857,36.1518987 C559.142857,56.1180411 543.025108,72.3037975 523.142857,72.3037975 C503.260606,72.3037975 487.142857,56.1180411 487.142857,36.1518987 C487.142857,16.1857564 503.260606,-2.7000624e-13 523.142857,-2.7000624e-13 Z" id="Combined-Shape" fill="url(#linearGradient-1)"></path>
                <path d="M55.6795405,617 C90.9574173,617 111.642437,589.360208 111.642437,561.153446 L111.642437,560.869961 C111.642437,557.738672 109.104026,555.20026 105.972737,555.20026 L54.9737215,555.20026 C51.8424322,555.20026 49.3040206,557.738672 49.3040206,560.869961 L49.3040206,570.93368 C49.3040206,574.064969 51.8424322,576.603381 54.9737215,576.603381 L80.6149072,576.603381 L80.6149072,576.603381 C77.3563082,587.375813 68.0055457,593.470741 55.5378623,593.470741 C37.8280848,593.470741 26.7771836,579.438231 26.7771836,562.003901 C26.7771836,545.136541 38.5364759,531.529259 55.3961841,531.529259 C63.7986763,531.529259 70.8172055,534.990737 75.79118,541.170189 C76.1011106,541.555234 76.4662628,542.054861 76.8866365,542.669071 C77.9434953,544.213263 79.6942136,545.136541 81.5654381,545.136541 L104.243308,545.136541 C105.938327,545.136571 107.312412,543.762486 107.312412,542.067467 C107.312412,541.676814 107.237831,541.289753 107.092675,540.92707 C107.092675,540.92707 107.092675,540.92707 107.092675,540.92707 C99.4874065,521.924742 78.1655065,508 56.1045752,508 C25.6437578,508 0,530.253576 0,562.003901 C0,592.762029 24.6520103,617 55.6795405,617 Z M183.756651,609.204161 L183.756651,597.014304 C183.756651,593.883015 181.21824,591.344603 178.086951,591.344603 L151.170661,591.344603 L151.170661,591.344603 L151.170661,573.343303 L177.095203,573.343303 C180.226492,573.343303 182.764904,570.804891 182.764904,567.673602 L182.764904,555.483745 C182.764904,552.352456 180.226492,549.814044 177.095203,549.814044 L151.170661,549.814044 L151.170661,549.814044 L151.170661,533.513654 L178.086951,533.513654 C181.21824,533.513654 183.756651,530.975243 183.756651,527.843953 L183.756651,515.654096 C183.756651,512.522807 181.21824,509.984395 178.086951,509.984395 L131.196604,509.984395 C128.065315,509.984395 125.526903,512.522807 125.526903,515.654096 L125.526903,609.204161 C125.526903,612.335451 128.065315,614.873862 131.196604,614.873862 L178.086951,614.873862 C181.21824,614.873862 183.756651,612.335451 183.756651,609.204161 Z M225.913378,609.141476 L225.26837,550.806242 L225.26837,550.806242 L263.837996,612.219563 C264.875341,613.871298 266.68887,614.873862 268.639335,614.873862 L283.070512,614.873862 C286.201801,614.873862 288.740213,612.335451 288.740213,609.204161 L288.740213,515.654096 C288.740213,512.522807 286.201801,509.984395 283.070512,509.984395 L268.863857,509.984395 C265.732568,509.984395 263.194156,512.522807 263.194156,515.654096 C263.194156,515.686385 263.194432,515.718672 263.194984,515.750956 L264.229881,576.319896 L264.229881,576.319896 L225.086848,512.683599 C224.055096,511.006242 222.226871,509.984395 220.257598,509.984395 L206.002704,509.984395 C202.871415,509.984395 200.333003,512.522807 200.333003,515.654096 L200.333003,609.204161 C200.333003,612.335451 202.871415,614.873862 206.002704,614.873862 L220.244024,614.873862 C223.375313,614.873862 225.913725,612.335451 225.913725,609.204161 C225.913725,609.183266 225.91361,609.16237 225.913378,609.141476 Z M366.096521,609.204161 L366.096521,597.014304 C366.096521,593.883015 363.558109,591.344603 360.42682,591.344603 L333.51053,591.344603 L333.51053,591.344603 L333.51053,573.343303 L359.435072,573.343303 C362.566362,573.343303 365.104773,570.804891 365.104773,567.673602 L365.104773,555.483745 C365.104773,552.352456 362.566362,549.814044 359.435072,549.814044 L333.51053,549.814044 L333.51053,549.814044 L333.51053,533.513654 L360.42682,533.513654 C363.558109,533.513654 366.096521,530.975243 366.096521,527.843953 L366.096521,515.654096 C366.096521,512.522807 363.558109,509.984395 360.42682,509.984395 L313.536473,509.984395 C310.405184,509.984395 307.866772,512.522807 307.866772,515.654096 L307.866772,609.204161 C307.866772,612.335451 310.405184,614.873862 313.536473,614.873862 L360.42682,614.873862 C363.558109,614.873862 366.096521,612.335451 366.096521,609.204161 Z M408.31663,609.204161 L408.31663,580.997399 L408.31663,580.997399 L408.599987,580.997399 L431.1309,612.502267 C432.195356,613.99069 433.912743,614.873862 435.742625,614.873862 L458.210774,614.873862 C459.599003,614.873862 460.724384,613.74848 460.724384,612.360251 C460.724384,611.790926 460.531111,611.238464 460.176201,610.7933 C460.176201,610.7933 460.176201,610.7933 460.176201,610.7933 C454.570853,603.762511 446.162831,593.216326 434.952136,579.154746 C451.103453,576.319896 461.020928,562.712614 461.020928,546.128739 C461.020928,531.245774 453.086948,518.914174 441.75269,513.811443 C436.22724,511.401821 427.868225,509.984395 416.959002,509.984395 L388.342573,509.984395 C385.211284,509.984395 382.672873,512.522807 382.672873,515.654096 L382.672873,609.204161 C382.672873,612.335451 385.211284,614.873862 388.342573,614.873862 L402.646929,614.873862 C405.778219,614.873862 408.31663,612.335451 408.31663,609.204161 Z M418.234106,562.712614 L408.31663,562.712614 L408.31663,533.513654 L418.517462,533.513654 C428.576616,533.513654 435.37717,538.616385 435.37717,547.687906 C435.37717,557.751625 428.859972,562.712614 418.234106,562.712614 Z M501.965934,609.204161 L501.965934,515.654096 C501.965934,512.522807 499.427522,509.984395 496.296233,509.984395 L480.858451,509.984395 C477.727162,509.984395 475.18875,512.522807 475.18875,515.654096 L475.18875,609.204161 C475.18875,612.335451 477.727162,614.873862 480.858451,614.873862 L496.296233,614.873862 C499.427522,614.873862 501.965934,612.335451 501.965934,609.204161 Z M571.954975,616.858257 C595.357574,616.858257 615.983201,602.588239 623.704618,579.769708 C623.704618,579.769708 623.704618,579.769708 623.704618,579.769708 C624.262087,578.122261 623.378486,576.334824 621.731039,575.777355 C621.405882,575.667327 621.064922,575.611202 620.721652,575.611183 L600.319413,575.611183 C598.255761,575.611188 596.35508,576.732459 595.356976,578.538683 C595.078256,579.043069 594.832811,579.466004 594.620639,579.807487 C589.039354,588.790377 580.94956,593.328999 571.671618,593.328999 C555.095266,593.328999 543.477652,579.154746 543.477652,562.145644 C543.477652,545.845254 554.81191,531.529259 571.52994,531.529259 C581.14003,531.529259 589.980515,536.808952 595.049013,545.914915 C595.172652,546.137044 595.307793,546.394269 595.454436,546.686592 C596.416166,548.603721 598.377395,549.814044 600.522229,549.814044 L621.280728,549.814044 C622.911261,549.814074 624.233069,548.492266 624.233069,546.861734 C624.233069,546.60553 624.19972,546.350417 624.133862,546.102823 C624.133862,546.102823 624.133862,546.102823 624.133862,546.102823 C621.663589,536.815802 615.997323,528.414384 607.232851,520.89857 C596.748663,511.968791 585.131049,508 570.679871,508 C540.644088,508 516.700469,533.088427 516.700469,560.869961 C516.700469,576.745124 521.517528,590.068921 532.851786,601.124837 C543.619331,611.755527 557.362118,616.858257 571.954975,616.858257 Z M707.123453,609.141476 L706.478445,550.806242 L706.478445,550.806242 L745.04807,612.219563 C746.085415,613.871298 747.898945,614.873862 749.84941,614.873862 L764.280586,614.873862 C767.411876,614.873862 769.950287,612.335451 769.950287,609.204161 L769.950287,515.654096 C769.950287,512.522807 767.411876,509.984395 764.280586,509.984395 L750.073932,509.984395 C746.942642,509.984395 744.404231,512.522807 744.404231,515.654096 C744.404231,515.686385 744.404507,515.718672 744.405058,515.750956 L745.439955,576.319896 L745.439955,576.319896 L706.296922,512.683599 C705.265171,511.006242 703.436946,509.984395 701.467673,509.984395 L687.212779,509.984395 C684.081489,509.984395 681.543078,512.522807 681.543078,515.654096 L681.543078,609.204161 C681.543078,612.335451 684.081489,614.873862 687.212779,614.873862 L701.454099,614.873862 C704.585388,614.873862 707.1238,612.335451 707.1238,609.204161 C707.1238,609.183266 707.123684,609.16237 707.123453,609.141476 Z M841.072754,616.858257 C871.108536,616.858257 895.193834,592.762029 895.193834,561.720416 C895.193834,531.671001 870.400145,508 839.79765,508 C807.92005,508 784.543144,532.379714 784.543144,564.838752 C784.543144,595.880364 811.88704,616.858257 841.072754,616.858257 Z M840.222684,593.328999 C823.07962,593.328999 811.320327,579.438231 811.320327,562.145644 C811.320327,545.561769 823.07962,531.529259 839.79765,531.529259 C856.657358,531.529259 868.41665,546.128739 868.41665,562.570871 C868.41665,579.296489 856.799036,593.328999 840.222684,593.328999 Z M945.772958,614.873862 C978.500627,614.873862 998.902291,597.014304 998.902291,562.429129 C998.902291,541.026008 989.551528,524.86736 974.675315,516.362809 C967.308048,512.252276 956.965538,509.984395 943.931141,509.984395 L913.897931,509.984395 C910.766642,509.984395 908.22823,512.522807 908.22823,515.654096 L908.22823,609.204161 C908.22823,612.335451 910.766642,614.873862 913.897931,614.873862 L945.772958,614.873862 L945.772958,614.873862 Z M947.048062,591.344603 L935.005414,591.344603 L935.005414,533.513654 L947.189741,533.513654 C962.632667,533.513654 972.125107,543.860858 972.125107,562.570871 C972.125107,581.706112 962.490988,591.344603 947.048062,591.344603 Z M1073,609.204161 L1073,597.014304 C1073,593.883015 1070.46159,591.344603 1067.3303,591.344603 L1040.41401,591.344603 L1040.41401,591.344603 L1040.41401,573.343303 L1066.33855,573.343303 C1069.46984,573.343303 1072.00825,570.804891 1072.00825,567.673602 L1072.00825,555.483745 C1072.00825,552.352456 1069.46984,549.814044 1066.33855,549.814044 L1040.41401,549.814044 L1040.41401,549.814044 L1040.41401,533.513654 L1067.3303,533.513654 C1070.46159,533.513654 1073,530.975243 1073,527.843953 L1073,515.654096 C1073,512.522807 1070.46159,509.984395 1067.3303,509.984395 L1020.43995,509.984395 C1017.30866,509.984395 1014.77025,512.522807 1014.77025,515.654096 L1014.77025,609.204161 C1014.77025,612.335451 1017.30866,614.873862 1020.43995,614.873862 L1067.3303,614.873862 C1070.46159,614.873862 1073,612.335451 1073,609.204161 Z" id="GENERICNODE-Copy" fill="#000000" fill-rule="nonzero"></path>
            </g>
        </g>
    </g>
</svg>