<?xml version="1.0" encoding="UTF-8"?>
<svg width="1470px" height="306px" viewBox="0 0 1470 306" version="1.1" xmlns="http://www.w3.org/2000/svg" xmlns:xlink="http://www.w3.org/1999/xlink">
    <title>logo_GN_horizontal</title>
    <defs>
        <linearGradient x1="97.1020761%" y1="50%" x2="2.89792388%" y2="0%" id="linearGradient-1">
            <stop stop-color="#8E00FF" offset="0%"></stop>
            <stop stop-color="#0047FF" offset="100%"></stop>
        </linearGradient>
    </defs>
    <g id="Page-1" stroke="none" stroke-width="1" fill="none" fill-rule="evenodd">
        <g id="Artboard-Copy-25" transform="translate(-15954.000000, -8441.000000)">
            <g id="logo_GN_horizontal" transform="translate(15954.000000, 8441.000000)">
                <path d="M142.714286,275.012658 C151.23525,275.012658 158.142857,281.949411 158.142857,290.506329 C158.142857,299.063247 151.23525,306 142.714286,306 C134.193321,306 127.285714,299.063247 127.285714,290.506329 C127.285714,281.949411 134.193321,275.012658 142.714286,275.012658 Z M235.285714,232.405063 C245.93692,232.405063 254.571429,241.076004 254.571429,251.772152 C254.571429,262.4683 245.93692,271.139241 235.285714,271.139241 C224.634508,271.139241 216,262.4683 216,251.772152 C216,241.076004 224.634508,232.405063 235.285714,232.405063 Z M52.0714286,240.151899 C57.3970315,240.151899 61.7142857,244.487369 61.7142857,249.835443 C61.7142857,255.183517 57.3970315,259.518987 52.0714286,259.518987 C46.7458256,259.518987 42.4285714,255.183517 42.4285714,249.835443 C42.4285714,244.487369 46.7458256,240.151899 52.0714286,240.151899 Z M142.714286,85.2151899 C183.188868,85.2151899 216,118.164765 216,158.810127 C216,199.455488 183.188868,232.405063 142.714286,232.405063 C102.239703,232.405063 69.4285714,199.455488 69.4285714,158.810127 C69.4285714,118.164765 102.239703,85.2151899 142.714286,85.2151899 Z M270,127.822785 C284.911688,127.822785 297,139.962102 297,154.936709 C297,169.911316 284.911688,182.050633 270,182.050633 C255.088312,182.050633 243,169.911316 243,154.936709 C243,139.962102 255.088312,127.822785 270,127.822785 Z M15.4285714,143.316456 C23.9495361,143.316456 30.8571429,150.253208 30.8571429,158.810127 C30.8571429,167.367045 23.9495361,174.303797 15.4285714,174.303797 C6.90760672,174.303797 5.1691984e-13,167.367045 5.1691984e-13,158.810127 C5.1691984e-13,150.253208 6.90760672,143.316456 15.4285714,143.316456 Z M241.071429,27.1139241 C259.178479,27.1139241 273.857143,41.8545236 273.857143,60.0379747 C273.857143,78.2214257 259.178479,92.9620253 241.071429,92.9620253 C222.964379,92.9620253 208.285714,78.2214257 208.285714,60.0379747 C208.285714,41.8545236 222.964379,27.1139241 241.071429,27.1139241 Z M54,50.3544304 C64.6512059,50.3544304 73.2857143,59.0253713 73.2857143,69.721519 C73.2857143,80.4176667 64.6512059,89.0886076 54,89.0886076 C43.3487941,89.0886076 34.7142857,80.4176667 34.7142857,69.721519 C34.7142857,59.0253713 43.3487941,50.3544304 54,50.3544304 Z M138.857143,-2.0250468e-13 C153.768831,-2.0250468e-13 165.857143,12.1393173 165.857143,27.1139241 C165.857143,42.0885308 153.768831,54.2278481 138.857143,54.2278481 C123.945455,54.2278481 111.857143,42.0885308 111.857143,27.1139241 C111.857143,12.1393173 123.945455,-2.0250468e-13 138.857143,-2.0250468e-13 Z" id="Combined-Shape" fill="url(#linearGradient-1)"></path>
                <path d="M452.679541,207 C487.957417,207 508.642437,179.360208 508.642437,151.153446 L508.642437,150.869961 C508.642437,147.738672 506.104026,145.20026 502.972737,145.20026 L451.973722,145.20026 C448.842432,145.20026 446.304021,147.738672 446.304021,150.869961 L446.304021,160.93368 C446.304021,164.064969 448.842432,166.603381 451.973722,166.603381 L477.614907,166.603381 L477.614907,166.603381 C474.356308,177.375813 465.005546,183.470741 452.537862,183.470741 C434.828085,183.470741 423.777184,169.438231 423.777184,152.003901 C423.777184,135.136541 435.536476,121.529259 452.396184,121.529259 C460.798676,121.529259 467.817206,124.990737 472.79118,131.170189 C473.101111,131.555234 473.466263,132.054861 473.886636,132.669071 C474.943495,134.213263 476.694214,135.136541 478.565438,135.136541 L501.243308,135.136541 C502.938327,135.136571 504.312412,133.762486 504.312412,132.067467 C504.312412,131.676814 504.237831,131.289753 504.092675,130.92707 C504.092675,130.92707 504.092675,130.92707 504.092675,130.92707 C496.487407,111.924742 475.165507,98 453.104575,98 C422.643758,98 397,120.253576 397,152.003901 C397,182.762029 421.65201,207 452.679541,207 Z M580.756651,199.204161 L580.756651,187.014304 C580.756651,183.883015 578.21824,181.344603 575.086951,181.344603 L548.170661,181.344603 L548.170661,181.344603 L548.170661,163.343303 L574.095203,163.343303 C577.226492,163.343303 579.764904,160.804891 579.764904,157.673602 L579.764904,145.483745 C579.764904,142.352456 577.226492,139.814044 574.095203,139.814044 L548.170661,139.814044 L548.170661,139.814044 L548.170661,123.513654 L575.086951,123.513654 C578.21824,123.513654 580.756651,120.975243 580.756651,117.843953 L580.756651,105.654096 C580.756651,102.522807 578.21824,99.9843953 575.086951,99.9843953 L528.196604,99.9843953 C525.065315,99.9843953 522.526903,102.522807 522.526903,105.654096 L522.526903,199.204161 C522.526903,202.335451 525.065315,204.873862 528.196604,204.873862 L575.086951,204.873862 C578.21824,204.873862 580.756651,202.335451 580.756651,199.204161 Z M622.913378,199.141476 L622.26837,140.806242 L622.26837,140.806242 L660.837996,202.219563 C661.875341,203.871298 663.68887,204.873862 665.639335,204.873862 L680.070512,204.873862 C683.201801,204.873862 685.740213,202.335451 685.740213,199.204161 L685.740213,105.654096 C685.740213,102.522807 683.201801,99.9843953 680.070512,99.9843953 L665.863857,99.9843953 C662.732568,99.9843953 660.194156,102.522807 660.194156,105.654096 C660.194156,105.686385 660.194432,105.718672 660.194984,105.750956 L661.229881,166.319896 L661.229881,166.319896 L622.086848,102.683599 C621.055096,101.006242 619.226871,99.9843953 617.257598,99.9843953 L603.002704,99.9843953 C599.871415,99.9843953 597.333003,102.522807 597.333003,105.654096 L597.333003,199.204161 C597.333003,202.335451 599.871415,204.873862 603.002704,204.873862 L617.244024,204.873862 C620.375313,204.873862 622.913725,202.335451 622.913725,199.204161 C622.913725,199.183266 622.91361,199.16237 622.913378,199.141476 Z M763.096521,199.204161 L763.096521,187.014304 C763.096521,183.883015 760.558109,181.344603 757.42682,181.344603 L730.51053,181.344603 L730.51053,181.344603 L730.51053,163.343303 L756.435072,163.343303 C759.566362,163.343303 762.104773,160.804891 762.104773,157.673602 L762.104773,145.483745 C762.104773,142.352456 759.566362,139.814044 756.435072,139.814044 L730.51053,139.814044 L730.51053,139.814044 L730.51053,123.513654 L757.42682,123.513654 C760.558109,123.513654 763.096521,120.975243 763.096521,117.843953 L763.096521,105.654096 C763.096521,102.522807 760.558109,99.9843953 757.42682,99.9843953 L710.536473,99.9843953 C707.405184,99.9843953 704.866772,102.522807 704.866772,105.654096 L704.866772,199.204161 C704.866772,202.335451 707.405184,204.873862 710.536473,204.873862 L757.42682,204.873862 C760.558109,204.873862 763.096521,202.335451 763.096521,199.204161 Z M805.31663,199.204161 L805.31663,170.997399 L805.31663,170.997399 L805.599987,170.997399 L828.1309,202.502267 C829.195356,203.99069 830.912743,204.873862 832.742625,204.873862 L855.210774,204.873862 C856.599003,204.873862 857.724384,203.74848 857.724384,202.360251 C857.724384,201.790926 857.531111,201.238464 857.176201,200.7933 C857.176201,200.7933 857.176201,200.7933 857.176201,200.7933 C851.570853,193.762511 843.162831,183.216326 831.952136,169.154746 C848.103453,166.319896 858.020928,152.712614 858.020928,136.128739 C858.020928,121.245774 850.086948,108.914174 838.75269,103.811443 C833.22724,101.401821 824.868225,99.9843953 813.959002,99.9843953 L785.342573,99.9843953 C782.211284,99.9843953 779.672873,102.522807 779.672873,105.654096 L779.672873,199.204161 C779.672873,202.335451 782.211284,204.873862 785.342573,204.873862 L799.646929,204.873862 C802.778219,204.873862 805.31663,202.335451 805.31663,199.204161 Z M815.234106,152.712614 L805.31663,152.712614 L805.31663,123.513654 L815.517462,123.513654 C825.576616,123.513654 832.37717,128.616385 832.37717,137.687906 C832.37717,147.751625 825.859972,152.712614 815.234106,152.712614 Z M898.965934,199.204161 L898.965934,105.654096 C898.965934,102.522807 896.427522,99.9843953 893.296233,99.9843953 L877.858451,99.9843953 C874.727162,99.9843953 872.18875,102.522807 872.18875,105.654096 L872.18875,199.204161 C872.18875,202.335451 874.727162,204.873862 877.858451,204.873862 L893.296233,204.873862 C896.427522,204.873862 898.965934,202.335451 898.965934,199.204161 Z M968.954975,206.858257 C992.357574,206.858257 1012.9832,192.588239 1020.70462,169.769708 C1020.70462,169.769708 1020.70462,169.769708 1020.70462,169.769708 C1021.26209,168.122261 1020.37849,166.334824 1018.73104,165.777355 C1018.40588,165.667327 1018.06492,165.611202 1017.72165,165.611183 L997.319413,165.611183 C995.255761,165.611188 993.35508,166.732459 992.356976,168.538683 C992.078256,169.043069 991.832811,169.466004 991.620639,169.807487 C986.039354,178.790377 977.94956,183.328999 968.671618,183.328999 C952.095266,183.328999 940.477652,169.154746 940.477652,152.145644 C940.477652,135.845254 951.81191,121.529259 968.52994,121.529259 C978.14003,121.529259 986.980515,126.808952 992.049013,135.914915 C992.172652,136.137044 992.307793,136.394269 992.454436,136.686592 C993.416166,138.603721 995.377395,139.814044 997.522229,139.814044 L1018.28073,139.814044 C1019.91126,139.814074 1021.23307,138.492266 1021.23307,136.861734 C1021.23307,136.60553 1021.19972,136.350417 1021.13386,136.102823 C1021.13386,136.102823 1021.13386,136.102823 1021.13386,136.102823 C1018.66359,126.815802 1012.99732,118.414384 1004.23285,110.89857 C993.748663,101.968791 982.131049,98 967.679871,98 C937.644088,98 913.700469,123.088427 913.700469,150.869961 C913.700469,166.745124 918.517528,180.068921 929.851786,191.124837 C940.619331,201.755527 954.362118,206.858257 968.954975,206.858257 Z M1104.12345,199.141476 L1103.47844,140.806242 L1103.47844,140.806242 L1142.04807,202.219563 C1143.08542,203.871298 1144.89895,204.873862 1146.84941,204.873862 L1161.28059,204.873862 C1164.41188,204.873862 1166.95029,202.335451 1166.95029,199.204161 L1166.95029,105.654096 C1166.95029,102.522807 1164.41188,99.9843953 1161.28059,99.9843953 L1147.07393,99.9843953 C1143.94264,99.9843953 1141.40423,102.522807 1141.40423,105.654096 C1141.40423,105.686385 1141.40451,105.718672 1141.40506,105.750956 L1142.43996,166.319896 L1142.43996,166.319896 L1103.29692,102.683599 C1102.26517,101.006242 1100.43695,99.9843953 1098.46767,99.9843953 L1084.21278,99.9843953 C1081.08149,99.9843953 1078.54308,102.522807 1078.54308,105.654096 L1078.54308,199.204161 C1078.54308,202.335451 1081.08149,204.873862 1084.21278,204.873862 L1098.4541,204.873862 C1101.58539,204.873862 1104.1238,202.335451 1104.1238,199.204161 C1104.1238,199.183266 1104.12368,199.16237 1104.12345,199.141476 Z M1238.07275,206.858257 C1268.10854,206.858257 1292.19383,182.762029 1292.19383,151.720416 C1292.19383,121.671001 1267.40015,98 1236.79765,98 C1204.92005,98 1181.54314,122.379714 1181.54314,154.838752 C1181.54314,185.880364 1208.88704,206.858257 1238.07275,206.858257 Z M1237.22268,183.328999 C1220.07962,183.328999 1208.32033,169.438231 1208.32033,152.145644 C1208.32033,135.561769 1220.07962,121.529259 1236.79765,121.529259 C1253.65736,121.529259 1265.41665,136.128739 1265.41665,152.570871 C1265.41665,169.296489 1253.79904,183.328999 1237.22268,183.328999 Z M1342.77296,204.873862 C1375.50063,204.873862 1395.90229,187.014304 1395.90229,152.429129 C1395.90229,131.026008 1386.55153,114.86736 1371.67532,106.362809 C1364.30805,102.252276 1353.96554,99.9843953 1340.93114,99.9843953 L1310.89793,99.9843953 C1307.76664,99.9843953 1305.22823,102.522807 1305.22823,105.654096 L1305.22823,199.204161 C1305.22823,202.335451 1307.76664,204.873862 1310.89793,204.873862 L1342.77296,204.873862 L1342.77296,204.873862 Z M1344.04806,181.344603 L1332.00541,181.344603 L1332.00541,123.513654 L1344.18974,123.513654 C1359.63267,123.513654 1369.12511,133.860858 1369.12511,152.570871 C1369.12511,171.706112 1359.49099,181.344603 1344.04806,181.344603 Z M1470,199.204161 L1470,187.014304 C1470,183.883015 1467.46159,181.344603 1464.3303,181.344603 L1437.41401,181.344603 L1437.41401,181.344603 L1437.41401,163.343303 L1463.33855,163.343303 C1466.46984,163.343303 1469.00825,160.804891 1469.00825,157.673602 L1469.00825,145.483745 C1469.00825,142.352456 1466.46984,139.814044 1463.33855,139.814044 L1437.41401,139.814044 L1437.41401,139.814044 L1437.41401,123.513654 L1464.3303,123.513654 C1467.46159,123.513654 1470,120.975243 1470,117.843953 L1470,105.654096 C1470,102.522807 1467.46159,99.9843953 1464.3303,99.9843953 L1417.43995,99.9843953 C1414.30866,99.9843953 1411.77025,102.522807 1411.77025,105.654096 L1411.77025,199.204161 C1411.77025,202.335451 1414.30866,204.873862 1417.43995,204.873862 L1464.3303,204.873862 C1467.46159,204.873862 1470,202.335451 1470,199.204161 Z" id="GENERICNODE-Copy" fill="#000000" fill-rule="nonzero"></path>
            </g>
        </g>
    </g>
</svg>